<svg width="185" height="174" viewBox="0 0 185 174" fill="none" xmlns="http://www.w3.org/2000/svg">
<path d="M244 52C244 75.6758 237.111 98.8401 224.173 118.668C211.235 138.496 192.807 154.132 171.137 163.667C149.466 173.203 125.489 176.227 102.129 172.371C78.7697 168.515 57.0368 157.945 39.5806 141.95C22.1245 125.956 9.69951 105.227 3.82074 82.2929C-2.05804 59.3586 -1.13656 35.2092 6.4728 12.7895C14.0822 -9.63023 28.0506 -29.3514 46.6748 -43.9694C65.299 -58.5873 87.7743 -67.4703 111.36 -69.5351L116.258 -13.5834C103.531 -12.4692 91.4027 -7.67568 81.3526 0.212518C71.3025 8.10072 63.7648 18.7428 59.6586 30.841C55.5524 42.9392 55.0552 55.9709 58.2275 68.3468C61.3998 80.7228 68.1047 91.9083 77.5244 100.539C86.9442 109.171 98.6718 114.874 111.277 116.955C123.883 119.036 136.821 117.404 148.515 112.258C160.209 107.113 170.154 98.6756 177.135 87.9759C184.117 77.2761 187.834 64.7761 187.834 52H244Z" fill="#CC4A81"/>
</svg>
